    <svg
      width="282"
      height="250"
      viewBox="0 0 282 250"
      fill="none"
      xmlns="http://www.w3.org/2000/svg"
    >
      <path
        d="M128.969 14.5312C130.257 16.054 130.58 16.8257 130.712 18.8037C129.135 23.0369 124.686 25.78 121.27 28.5214C119.589 29.9126 117.987 31.3647 116.391 32.8516C114.363 34.7393 112.297 36.5513 110.136 38.2861C107.522 40.3881 105.075 42.624 102.629 44.9147C100.342 47.0446 97.9579 49.0176 95.5196 50.9732C93.3805 52.7559 91.3488 54.6451 89.3214 56.553C88.0626 57.7344 86.8121 58.864 85.4366 59.9091C81.2877 63.4093 78.3242 69.1127 76.4687 74.1406C76.2946 74.5995 76.1205 75.0585 75.9411 75.5313C72.8722 85.332 74.4118 96.3429 78.9514 105.347C83.7727 114.276 92.145 120.229 101.728 123.223C120.13 127.81 134.911 117.36 150.081 108.451C153.954 106.18 157.849 103.949 161.747 101.724C162.07 101.539 162.393 101.354 162.726 101.164C164.239 100.3 165.753 99.4371 167.269 98.5779C168.3 97.9922 169.327 97.4015 170.351 96.804C170.783 96.5551 171.214 96.3062 171.659 96.0498C172.026 95.8355 172.392 95.6212 172.77 95.4004C174.28 94.7075 175.502 94.5652 177.119 94.9219C179.612 96.1983 181.02 98.6855 182.562 100.938C183.01 101.579 183.458 102.221 183.906 102.862C184.917 104.318 185.918 105.781 186.914 107.248C188.687 109.855 190.493 112.438 192.304 115.02C192.625 115.478 192.946 115.936 193.277 116.407C193.933 117.343 194.59 118.279 195.246 119.215C196.23 120.618 197.212 122.022 198.193 123.426C201.178 127.693 204.166 131.958 207.172 136.211C210.179 140.466 213.169 144.733 216.155 149.003C217.45 150.855 218.748 152.707 220.047 154.557C221.958 157.279 223.863 160.006 225.766 162.734C226.093 163.203 226.42 163.671 226.757 164.154C227.729 165.547 228.696 166.943 229.662 168.34C230.099 168.965 230.099 168.965 230.544 169.602C234.621 175.524 236.16 180.05 235.609 187.344C234.176 193.806 230.264 198.063 225.219 202.109C223.651 202.893 222.587 202.824 220.844 202.656C218.217 201.096 215.983 199.173 213.7 197.153C212.972 196.516 212.244 195.878 211.515 195.241C211.153 194.924 210.79 194.607 210.417 194.28C208.87 192.933 207.305 191.606 205.736 190.283C205.448 190.04 205.16 189.798 204.864 189.547C204.285 189.059 203.705 188.571 203.126 188.083C202.229 187.326 201.333 186.566 200.438 185.806C197.712 183.49 194.98 181.188 192.201 178.936C189.399 176.657 186.677 174.294 183.956 171.92C181.968 170.191 179.962 168.494 177.914 166.836C175.132 164.583 172.434 162.241 169.737 159.889C167.749 158.16 165.743 156.462 163.695 154.805C161.28 152.849 158.928 150.831 156.586 148.789C153.265 145.897 149.915 143.057 146.469 140.312C145.932 139.863 145.932 139.863 145.384 139.405C143.756 138.112 142.663 137.581 140.59 137.271C138.816 137.424 138.816 137.424 137.753 138.467C136.987 140.179 136.868 141.188 137.172 143.047C138.4 144.409 138.4 144.409 139.906 145.781C140.359 146.207 140.811 146.633 141.278 147.072C144.224 149.763 147.225 152.348 150.329 154.856C152.142 156.339 153.922 157.857 155.697 159.385C158.184 161.525 160.676 163.659 163.183 165.776C163.619 166.145 163.619 166.145 164.065 166.522C164.651 167.017 165.237 167.512 165.823 168.007C167.302 169.256 168.78 170.507 170.258 171.758C170.85 172.259 171.443 172.76 172.035 173.262C177.96 178.275 183.884 183.288 189.809 188.301C190.102 188.549 190.396 188.798 190.698 189.053C191.288 189.552 191.878 190.052 192.467 190.551C194.303 192.104 196.139 193.656 197.975 195.208C198.872 195.967 199.769 196.727 200.665 197.487C201.617 198.292 202.571 199.096 203.527 199.896C206.527 202.418 206.527 202.418 206.83 204.844C206.737 209.345 203.624 213.201 200.671 216.337C198.512 218.364 196.533 220.006 193.532 220.329C191.565 220.126 190.783 219.649 189.228 218.447C188.709 218.05 188.191 217.652 187.657 217.242C185.097 215.195 182.57 213.107 180.049 211.012C177.165 208.618 174.228 206.322 171.245 204.053C169.161 202.456 167.13 200.797 165.097 199.136C161.114 195.883 157.085 192.695 153.031 189.531C148.978 186.367 144.948 183.18 140.966 179.927C138.351 177.792 135.72 175.685 133.036 173.638C129.691 171.086 126.404 168.467 123.124 165.832C122.814 165.584 122.504 165.336 122.185 165.081C121.39 164.438 120.608 163.778 119.828 163.117C118.152 161.871 116.813 161.753 114.75 161.641C114.016 161.802 113.285 161.98 112.562 162.187C112.395 162.935 112.251 163.689 112.118 164.443C112.036 164.862 111.953 165.281 111.868 165.712C112.152 168.399 114.298 170.013 116.265 171.657C117.088 172.265 117.088 172.265 117.929 172.886C118.56 173.358 119.19 173.832 119.819 174.306C120.316 174.681 120.316 174.681 120.822 175.063C122.659 176.473 124.444 177.946 126.234 179.414C128.848 181.552 131.479 183.656 134.164 185.703C137.219 188.033 140.203 190.442 143.179 192.872C146.79 195.818 150.452 198.695 154.125 201.562C158.553 205.019 162.945 208.512 167.293 212.069C170.237 214.47 173.243 216.777 176.286 219.05C177.641 220.156 177.641 220.156 178.734 221.797C177.529 227.922 173.772 232.869 168.891 236.562C167.1 237.458 165.964 237.363 163.969 237.109C162.153 236.044 160.627 234.664 159.047 233.281C158.217 232.576 157.387 231.87 156.555 231.166C155.953 230.656 155.352 230.144 154.751 229.632C152.604 227.804 150.408 226.052 148.178 224.326C145.036 221.89 142.022 219.33 139.031 216.711C136.583 214.569 134.09 212.493 131.562 210.445C129.86 209.053 128.183 207.635 126.508 206.211C123.349 203.528 120.153 200.895 116.937 198.281C114.035 195.922 111.142 193.555 108.302 191.121C105.669 188.871 103.017 186.644 100.292 184.507C99.7851 184.104 99.2783 183.702 98.756 183.287C96.99 182.273 95.9744 182.178 93.9687 182.422C92.6016 183.242 92.6016 183.242 91.7812 184.609C91.4347 186.645 91.5232 187.526 92.7233 189.221C93.9584 190.613 95.2109 191.728 96.6689 192.881C98.9577 194.714 101.209 196.579 103.437 198.486C105.862 200.555 108.333 202.55 110.854 204.502C113.995 206.939 117.009 209.498 120 212.117C122.451 214.261 124.945 216.339 127.476 218.387C129.445 219.999 131.376 221.655 133.31 223.309C135.214 224.925 137.158 226.474 139.139 227.995C145.326 232.756 145.326 232.756 147.016 235.469C147.298 238.973 146.014 240.969 143.784 243.61C140.09 247.344 136.433 248.837 131.259 249.346C127.206 249.211 123.537 247.419 120.191 245.248C119.406 244.74 119.406 244.74 118.605 244.221C115.694 242.307 112.792 240.38 109.896 238.442C108.917 237.788 107.938 237.133 106.958 236.478C106.303 236.04 105.647 235.601 104.991 235.163C102.999 233.832 101.003 232.507 99.0038 231.188C84.2119 221.418 69.025 210.941 56.6531 198.153C55.7102 197.21 54.7297 196.365 53.7051 195.513C50.0605 192.368 46.8784 188.722 43.6562 185.156C43.3711 184.841 43.0859 184.525 42.7921 184.201C17.6232 156.136 0.642513 118.001 0.829098 79.9854C0.829913 79.5703 0.830728 79.1552 0.831568 78.7276C0.854647 72.1638 1.19888 65.8005 2.64062 59.375C2.71966 59.0126 2.79871 58.6503 2.88015 58.277C5.58949 46.2274 10.8107 35.2582 19.0469 26.0156C19.5161 25.4248 19.9836 24.8326 20.4482 24.2383C33.3799 9.64869 53.9077 2.21793 72.9482 0.96191C91.2965 0.105655 113.754 3.41052 128.969 14.5312Z"
        fill="#A294F9"
      />
      <path
        d="M237.797 7.96873C238.328 8.20864 238.328 8.20864 238.87 8.45339C255.789 16.1729 268.795 29.9227 275.531 47.3437C279.47 58.5197 281.128 69.5045 281.137 81.3183C281.137 81.754 281.137 82.1897 281.138 82.6386C281.128 90.1187 280.673 97.3889 279.359 104.766C279.266 105.3 279.172 105.835 279.075 106.386C274.877 129.628 265.349 158.697 248.188 175.859C244.781 176.169 244.781 176.169 243.522 175.244C242.432 173.853 241.784 172.371 241.044 170.767C239.168 166.869 236.795 163.468 234.226 160.004C232.692 157.909 231.215 155.773 229.73 153.643C229.074 152.703 228.417 151.764 227.761 150.825C227.432 150.353 227.102 149.882 226.763 149.396C225.133 147.062 223.501 144.73 221.869 142.397C221.551 141.942 221.232 141.487 220.904 141.018C218.625 137.763 216.335 134.514 214.041 131.269C211.812 128.114 209.593 124.952 207.377 121.787C207.046 121.315 206.716 120.843 206.375 120.357C205.913 119.697 205.913 119.697 205.442 119.023C205.168 118.632 204.895 118.242 204.614 117.84C203.095 115.649 202.466 114.577 202.797 111.875C204.586 109.492 206.891 108.873 209.599 107.944C215.035 105.963 220.281 103.211 224.125 98.75C224.436 96.5762 224.466 95.4332 223.236 93.5889C221.523 92.4618 220.689 92.4912 218.656 92.7344C217.351 93.5479 216.223 94.3447 215.033 95.2978C210.381 98.8152 205.352 101.252 199.516 102.031C199.053 102.096 198.589 102.161 198.112 102.228C197.639 102.264 197.166 102.301 196.679 102.339C196.041 102.391 196.041 102.391 195.391 102.444C192.002 101.404 189.857 96.9962 187.963 94.1699C187.444 93.4062 186.925 92.6429 186.406 91.8799C186.138 91.4858 185.87 91.0917 185.594 90.6857C184.134 88.5532 182.649 86.4388 181.161 84.3262C180.881 83.9262 180.601 83.5262 180.312 83.1141C180.05 82.7429 179.788 82.3716 179.518 81.9891C179.287 81.661 179.057 81.333 178.819 80.995C178.156 80.0739 178.156 80.0739 177.094 79.0625C175.007 78.8263 173.667 78.8709 171.762 79.7803C170.177 81.673 169.868 83.415 169.42 85.813C168.405 88.5984 165.559 89.871 163.078 91.2732C162.475 91.616 161.871 91.9587 161.249 92.3119C160.595 92.6806 159.941 93.0493 159.286 93.418C158.603 93.8049 157.921 94.1921 157.238 94.5795C155.819 95.3853 154.398 96.19 152.977 96.994C149.95 98.7082 146.931 100.437 143.911 102.165C142.95 102.714 141.988 103.262 141.025 103.81C138.093 105.48 135.169 107.161 132.267 108.884C123.415 114.121 115.459 117.345 105.058 115.304C97.6032 113.167 91.1696 108.977 87.0303 102.285C83.0646 94.8379 81.5408 86.8171 83.9199 78.584C86.4904 71.3431 90.1929 66.5707 96.1242 61.8466C97.9331 60.3565 99.6437 58.7907 101.352 57.1875C103.955 54.7488 106.637 52.4636 109.42 50.2298C111.066 48.865 112.639 47.4325 114.203 45.9765C116.231 44.0889 118.297 42.2768 120.458 40.542C122.747 38.7012 124.913 36.7716 127.055 34.7656C129.698 32.2904 132.417 29.9576 135.245 27.6925C136.504 26.6613 137.691 25.5874 138.881 24.4775C164.779 1.45204 205.892 -6.63719 237.797 7.96873Z"
        fill="#CDC1FF"
      />
    </svg>