<svg width="1542" height="379" viewBox="0 0 1542 379" fill="none" xmlns="http://www.w3.org/2000/svg">
<path d="M23.7 99H92.7C109.1 99 123.4 101.8 135.6 107.4C147.8 112.8 157.2 120.7 163.8 131.1C170.6 141.3 174 153.7 174 168.3C174 181.5 171.1 193.1 165.3 203.1C159.5 212.9 151.2 220.7 140.4 226.5L199.8 306H148.5L99.3 237C96.3 237.2 93.2 237.3 90 237.3H67.2V306H23.7V99ZM67.2 200.1H90.9C103.1 200.1 112.5 197.6 119.1 192.6C125.9 187.4 129.3 179.3 129.3 168.3C129.3 157.7 125.9 149.8 119.1 144.6C112.5 139.2 103.1 136.5 90.9 136.5H67.2V200.1Z" fill="#A294F9"/>
<path d="M324.977 138.9H266.777V99H427.277V138.9H368.777V306H324.977V138.9Z" fill="#CDC1FF"/>
<path d="M722.7 282.3V274.2C718.3 283 711.9 290 703.5 295.2C695.3 300.4 685.7 303 674.7 303C662.1 303 651 299.8 641.4 293.4C631.8 286.8 624.3 277.7 618.9 266.1C613.5 254.5 610.8 241.2 610.8 226.2C610.8 211 613.6 197.6 619.2 186C625 174.2 632.8 164.9 642.6 158.1C652.6 151.3 664 147.9 676.8 147.9C687.2 147.9 696.6 150.5 705 155.7C713.4 160.7 719.7 167.3 723.9 175.5L726.9 151.5H762.9V282.3C762.9 309.7 755.9 330.7 741.9 345.3C728.1 359.9 708.4 367.2 682.8 367.2C669.6 367.2 657.1 365.4 645.3 361.8C633.5 358.4 623.2 353.4 614.4 346.8L627.6 310.8C634.8 317 642.9 321.7 651.9 324.9C661.1 328.3 670.3 330 679.5 330C708.3 330 722.7 314.1 722.7 282.3ZM721.5 225.6C721.5 213.8 718.3 204.3 711.9 197.1C705.7 189.7 697.6 186 687.6 186C677.8 186 669.7 189.7 663.3 197.1C656.9 204.3 653.7 213.8 653.7 225.6C653.7 237.2 656.9 246.7 663.3 254.1C669.7 261.3 677.8 264.9 687.6 264.9C697.6 264.9 705.7 261.3 711.9 254.1C718.3 246.7 721.5 237.2 721.5 225.6ZM793.32 228.6C793.32 212.8 796.52 198.8 802.92 186.6C809.32 174.4 818.12 164.8 829.32 157.8C840.52 150.8 853.22 147.3 867.42 147.3C881.62 147.3 894.12 150.7 904.92 157.5C915.72 164.3 924.12 173.7 930.12 185.7C936.12 197.7 939.12 211.7 939.12 227.7V240.3H835.92C839.32 263.7 852.82 275.4 876.42 275.4C893.02 275.4 907.92 268.3 921.12 254.1L937.62 285.3C929.02 293.3 919.12 299.5 907.92 303.9C896.92 308.1 885.22 310.2 872.82 310.2C856.42 310.2 842.22 306.9 830.22 300.3C818.42 293.5 809.32 284 802.92 271.8C796.52 259.6 793.32 245.2 793.32 228.6ZM836.22 213H897.72C896.72 202.4 893.52 194.3 888.12 188.7C882.72 182.9 875.72 180 867.12 180C858.92 180 852.12 182.9 846.72 188.7C841.32 194.3 837.82 202.4 836.22 213ZM974.74 250.5V189.3H951.04V153.3H974.74V113.4H1016.74V153.3H1065.04V189.3H1016.74V248.1C1016.74 255.5 1018.04 261.2 1020.64 265.2C1023.44 269 1027.94 270.9 1034.14 270.9C1042.94 270.9 1051.54 267.6 1059.94 261L1067.44 299.1C1062.24 302.3 1055.94 304.8 1048.54 306.6C1041.34 308.6 1033.94 309.6 1026.34 309.6C991.94 309.6 974.74 289.9 974.74 250.5ZM1091.76 93H1133.76V174C1138.56 165.8 1144.86 159.4 1152.66 154.8C1160.46 150.2 1169.26 147.9 1179.06 147.9C1196.06 147.9 1209.36 154.1 1218.96 166.5C1228.56 178.7 1233.36 196.3 1233.36 219.3V306H1191.36V222C1191.36 210.4 1188.96 201.6 1184.16 195.6C1179.56 189.6 1173.16 186.6 1164.96 186.6C1155.76 186.6 1148.26 190.4 1142.46 198C1136.66 205.4 1133.76 214.6 1133.76 225.6V306H1091.76V93ZM1260.31 228.6C1260.31 212.8 1263.51 198.8 1269.91 186.6C1276.31 174.4 1285.11 164.8 1296.31 157.8C1307.51 150.8 1320.21 147.3 1334.41 147.3C1348.61 147.3 1361.11 150.7 1371.91 157.5C1382.71 164.3 1391.11 173.7 1397.11 185.7C1403.11 197.7 1406.11 211.7 1406.11 227.7V240.3H1302.91C1306.31 263.7 1319.81 275.4 1343.41 275.4C1360.01 275.4 1374.91 268.3 1388.11 254.1L1404.61 285.3C1396.01 293.3 1386.11 299.5 1374.91 303.9C1363.91 308.1 1352.21 310.2 1339.81 310.2C1323.41 310.2 1309.21 306.9 1297.21 300.3C1285.41 293.5 1276.31 284 1269.91 271.8C1263.51 259.6 1260.31 245.2 1260.31 228.6ZM1303.21 213H1364.71C1363.71 202.4 1360.51 194.3 1355.11 188.7C1349.71 182.9 1342.71 180 1334.11 180C1325.91 180 1319.11 182.9 1313.71 188.7C1308.31 194.3 1304.81 202.4 1303.21 213ZM1434.53 151.5H1470.83L1474.13 177C1477.93 167.8 1483.23 160.7 1490.03 155.7C1496.83 150.5 1504.53 147.9 1513.13 147.9C1522.53 147.9 1530.83 150.4 1538.03 155.4L1527.83 196.5C1521.03 191.7 1513.83 189.3 1506.23 189.3C1497.23 189.3 1490.03 193.1 1484.63 200.7C1479.23 208.1 1476.53 218.1 1476.53 230.7V306H1434.53V151.5Z" fill="#CDC1FF"/>
<g clip-path="url(#clip0_134_4079)">
<path d="M494.379 157.934C495.249 158.961 495.467 159.482 495.556 160.818C494.491 163.675 491.488 165.527 489.182 167.377C488.047 168.316 486.966 169.296 485.889 170.3C484.52 171.574 483.126 172.797 481.667 173.968C479.903 175.387 478.251 176.896 476.6 178.442C475.056 179.88 473.447 181.212 471.801 182.532C470.357 183.735 468.985 185.01 467.617 186.298C466.767 187.096 465.923 187.858 464.995 188.564C462.194 190.926 460.194 194.776 458.941 198.17C458.824 198.48 458.706 198.789 458.585 199.109C456.514 205.724 457.553 213.156 460.617 219.234C463.872 225.261 469.523 229.28 475.991 231.3C488.413 234.397 498.39 227.343 508.63 221.329C511.244 219.796 513.873 218.291 516.504 216.788C516.722 216.664 516.94 216.539 517.165 216.411C518.186 215.827 519.208 215.245 520.232 214.665C520.927 214.27 521.621 213.871 522.312 213.468C522.603 213.3 522.895 213.132 523.195 212.959C523.442 212.814 523.69 212.669 523.945 212.52C524.964 212.053 525.789 211.957 526.881 212.197C528.563 213.059 529.513 214.738 530.555 216.258C530.857 216.691 531.159 217.124 531.462 217.557C532.144 218.54 532.82 219.527 533.492 220.517C534.689 222.277 535.908 224.021 537.13 225.763C537.347 226.072 537.564 226.381 537.787 226.7C538.23 227.332 538.673 227.964 539.116 228.595C539.78 229.542 540.443 230.49 541.105 231.437C543.12 234.318 545.137 237.197 547.166 240.067C549.196 242.939 551.214 245.82 553.229 248.702C554.104 249.952 554.98 251.202 555.857 252.451C557.147 254.288 558.433 256.129 559.717 257.971C559.938 258.287 560.159 258.603 560.386 258.929C561.042 259.869 561.695 260.811 562.347 261.754C562.642 262.176 562.642 262.176 562.943 262.607C565.694 266.604 566.733 269.659 566.361 274.582C565.394 278.944 562.753 281.818 559.348 284.549C558.29 285.078 557.571 285.031 556.395 284.918C554.622 283.865 553.113 282.566 551.573 281.203C551.081 280.773 550.589 280.343 550.098 279.913C549.853 279.699 549.608 279.485 549.357 279.264C548.312 278.355 547.256 277.459 546.197 276.566C546.003 276.402 545.808 276.238 545.608 276.07C545.217 275.74 544.826 275.41 544.435 275.081C543.829 274.57 543.225 274.057 542.621 273.544C540.781 271.981 538.936 270.427 537.061 268.907C535.17 267.368 533.332 265.773 531.495 264.171C530.153 263.004 528.799 261.858 527.417 260.739C525.539 259.219 523.718 257.638 521.897 256.05C520.556 254.883 519.202 253.737 517.819 252.618C516.189 251.298 514.601 249.936 513.021 248.558C510.779 246.605 508.517 244.688 506.191 242.836C505.829 242.533 505.829 242.533 505.459 242.223C504.36 241.351 503.622 240.993 502.223 240.783C501.026 240.886 501.026 240.886 500.308 241.59C499.791 242.746 499.711 243.427 499.916 244.682C500.745 245.601 500.745 245.601 501.762 246.527C502.067 246.815 502.373 247.102 502.687 247.398C504.676 249.215 506.702 250.96 508.797 252.653C510.021 253.654 511.222 254.678 512.421 255.71C514.099 257.154 515.782 258.595 517.473 260.024C517.768 260.273 517.768 260.273 518.069 260.527C518.464 260.861 518.86 261.196 519.256 261.53C520.254 262.373 521.252 263.217 522.249 264.062C522.649 264.4 523.049 264.738 523.449 265.077C527.448 268.46 531.447 271.844 535.446 275.228C535.644 275.396 535.842 275.563 536.046 275.736C536.444 276.073 536.842 276.41 537.241 276.747C538.479 277.795 539.719 278.843 540.958 279.891C541.564 280.403 542.169 280.916 542.774 281.428C543.416 281.972 544.06 282.515 544.706 283.055C546.731 284.757 546.731 284.757 546.935 286.395C546.872 289.433 544.771 292.035 542.778 294.152C541.321 295.521 539.985 296.629 537.959 296.847C536.631 296.71 536.104 296.388 535.054 295.577C534.704 295.309 534.354 295.04 533.994 294.764C532.266 293.382 530.56 291.972 528.858 290.558C526.912 288.942 524.929 287.392 522.915 285.861C521.509 284.783 520.137 283.663 518.765 282.542C516.077 280.346 513.357 278.194 510.621 276.059C507.885 273.923 505.165 271.771 502.477 269.576C500.712 268.134 498.936 266.712 497.124 265.33C494.866 263.608 492.647 261.84 490.434 260.062C490.225 259.894 490.015 259.727 489.8 259.555C489.263 259.12 488.735 258.675 488.209 258.229C487.078 257.388 486.174 257.308 484.781 257.232C484.286 257.342 483.792 257.462 483.305 257.602C483.191 258.106 483.095 258.615 483.005 259.124C482.949 259.407 482.893 259.69 482.836 259.981C483.027 261.795 484.476 262.884 485.804 263.994C486.36 264.404 486.36 264.404 486.927 264.823C487.353 265.142 487.778 265.461 488.203 265.782C488.538 266.035 488.538 266.035 488.88 266.292C490.12 267.245 491.325 268.239 492.533 269.229C494.297 270.673 496.073 272.093 497.886 273.475C499.948 275.047 501.962 276.673 503.971 278.314C506.408 280.302 508.88 282.244 511.359 284.18C514.348 286.513 517.313 288.87 520.248 291.272C522.235 292.892 524.264 294.449 526.318 295.984C527.232 296.73 527.232 296.73 527.971 297.838C527.157 301.972 524.621 305.311 521.326 307.805C520.117 308.409 519.351 308.345 518.004 308.174C516.778 307.455 515.748 306.524 514.682 305.59C514.121 305.114 513.561 304.637 513 304.162C512.593 303.818 512.187 303.472 511.782 303.126C510.333 301.893 508.85 300.71 507.345 299.545C505.224 297.901 503.19 296.173 501.171 294.405C499.518 292.959 497.836 291.558 496.129 290.175C494.981 289.236 493.848 288.279 492.718 287.317C490.586 285.507 488.428 283.729 486.258 281.965C484.299 280.372 482.346 278.775 480.429 277.132C478.652 275.613 476.861 274.11 475.022 272.667C474.68 272.395 474.338 272.124 473.985 271.844C472.793 271.159 472.108 271.096 470.754 271.26C469.831 271.813 469.831 271.813 469.277 272.736C469.043 274.111 469.103 274.705 469.913 275.85C470.747 276.789 471.592 277.541 472.577 278.32C474.121 279.557 475.641 280.816 477.145 282.103C478.782 283.5 480.45 284.846 482.151 286.164C484.272 287.809 486.306 289.536 488.325 291.304C489.979 292.751 491.663 294.154 493.371 295.537C494.7 296.624 496.004 297.742 497.309 298.859C498.594 299.95 499.906 300.995 501.244 302.021C505.42 305.235 505.42 305.235 506.561 307.066C506.751 309.432 505.884 310.779 504.379 312.562C501.886 315.082 499.417 316.09 495.925 316.433C493.189 316.343 490.712 315.133 488.454 313.668C487.924 313.324 487.924 313.324 487.383 312.974C485.418 311.682 483.459 310.382 481.505 309.074C480.844 308.632 480.183 308.19 479.522 307.748C479.079 307.452 478.637 307.156 478.194 306.86C476.85 305.961 475.502 305.067 474.153 304.177C464.168 297.582 453.917 290.51 445.566 281.878C444.929 281.242 444.268 280.671 443.576 280.096C441.116 277.974 438.968 275.513 436.793 273.105C436.6 272.893 436.408 272.68 436.21 272.46C419.221 253.517 407.759 227.775 407.885 202.115C407.885 201.835 407.886 201.555 407.886 201.266C407.902 196.836 408.134 192.54 409.107 188.203C409.161 187.959 409.214 187.714 409.269 187.462C411.098 179.329 414.622 171.924 420.182 165.686C420.498 165.287 420.814 164.887 421.128 164.486C429.856 154.638 443.713 149.622 456.565 148.774C468.95 148.196 484.109 150.427 494.379 157.934Z" fill="#A294F9"/>
<path d="M567.838 153.504C568.197 153.666 568.197 153.666 568.562 153.831C579.982 159.042 588.761 168.323 593.309 180.082C595.967 187.626 597.086 195.041 597.092 203.015C597.093 203.309 597.093 203.603 597.093 203.906C597.086 208.955 596.779 213.862 595.893 218.842C595.829 219.203 595.766 219.564 595.701 219.936C592.867 235.624 586.436 255.246 574.852 266.83C572.552 267.039 572.552 267.039 571.702 266.415C570.967 265.476 570.529 264.475 570.03 263.392C568.763 260.761 567.162 258.466 565.427 256.128C564.392 254.714 563.395 253.272 562.393 251.834C561.95 251.2 561.507 250.566 561.064 249.932C560.841 249.613 560.619 249.295 560.39 248.967C559.289 247.392 558.188 245.818 557.087 244.243C556.872 243.936 556.657 243.629 556.435 243.312C554.897 241.115 553.351 238.922 551.803 236.732C550.298 234.602 548.8 232.467 547.304 230.331C547.081 230.013 546.858 229.694 546.628 229.366C546.316 228.92 546.316 228.92 545.998 228.465C545.814 228.202 545.629 227.938 545.439 227.667C544.414 226.188 543.99 225.464 544.213 223.641C545.421 222.032 546.977 221.614 548.804 220.987C552.473 219.65 556.015 217.792 558.609 214.781C558.819 213.314 558.84 212.542 558.01 211.297C556.853 210.537 556.29 210.557 554.918 210.721C554.037 211.27 553.276 211.808 552.472 212.451C549.332 214.825 545.937 216.47 541.998 216.996C541.685 217.04 541.373 217.084 541.051 217.129C540.731 217.153 540.412 217.178 540.083 217.204C539.653 217.239 539.653 217.239 539.214 217.274C536.926 216.573 535.478 213.597 534.2 211.69C533.85 211.174 533.499 210.659 533.149 210.144C532.968 209.878 532.787 209.612 532.601 209.338C531.616 207.898 530.613 206.471 529.609 205.045C529.42 204.775 529.23 204.505 529.035 204.227C528.859 203.976 528.682 203.726 528.5 203.468C528.344 203.246 528.188 203.025 528.028 202.797C527.58 202.175 527.58 202.175 526.863 201.492C525.455 201.333 524.55 201.363 523.264 201.977C522.195 203.254 521.986 204.43 521.684 206.049C520.998 207.929 519.077 208.788 517.403 209.734C516.995 209.966 516.588 210.197 516.168 210.436C515.727 210.684 515.285 210.933 514.843 211.182C514.382 211.443 513.922 211.705 513.461 211.966C512.503 212.51 511.544 213.053 510.585 213.596C508.541 214.753 506.503 215.92 504.465 217.086C503.816 217.457 503.167 217.827 502.517 218.196C500.538 219.324 498.564 220.459 496.605 221.622C490.63 225.156 485.26 227.333 478.239 225.955C473.207 224.513 468.864 221.684 466.07 217.168C463.394 212.141 462.365 206.727 463.971 201.169C465.706 196.282 468.205 193.06 472.209 189.871C473.43 188.866 474.584 187.809 475.737 186.727C477.495 185.08 479.305 183.538 481.184 182.03C482.294 181.109 483.356 180.142 484.412 179.159C485.781 177.885 487.175 176.662 488.634 175.491C490.179 174.248 491.641 172.946 493.087 171.592C494.871 169.921 496.706 168.346 498.615 166.817C499.465 166.121 500.267 165.396 501.07 164.647C518.551 149.105 546.302 143.645 567.838 153.504Z" fill="#CDC1FF"/>
</g>
<defs>
<clipPath id="clip0_134_4079">
<rect width="189" height="189" fill="white" transform="translate(408 138)"/>
</clipPath>
</defs>
</svg>
